<?xml version="1.0" encoding="UTF-8" standalone="no"?><!DOCTYPE svg PUBLIC "-//W3C//DTD SVG 1.1//EN" "http://www.w3.org/Graphics/SVG/1.1/DTD/svg11.dtd"><svg width="100%" height="100%" viewBox="0 0 4860 1784" version="1.1" xmlns="http://www.w3.org/2000/svg" xmlns:xlink="http://www.w3.org/1999/xlink" xml:space="preserve" xmlns:serif="http://www.serif.com/" style="fill-rule:evenodd;clip-rule:evenodd;stroke-linejoin:round;stroke-miterlimit:2;"><path d="M2314.68,701.509c0.976,2.481 3.383,4.121 6.049,4.121c1.374,-0 2.714,-0.437 3.826,-1.246c49.791,-35.958 110.833,-81.125 143.25,-131.792c41.25,-64.5 74.833,-122.708 133.666,-180.916c12.792,-12.667 24.167,-20.209 41.5,-7.5c20.375,14.916 35.209,35.458 21.209,59.75c-41.459,72.083 -96.667,130.125 -139.375,198.25c-38.25,61.055 -73.264,123.958 -105.042,188.708c-7.889,16.139 -14.167,32.139 -18.833,48c-0.135,0.464 -0.203,0.945 -0.203,1.429c-0,2.811 2.313,5.125 5.125,5.125c0.922,-0 1.827,-0.249 2.619,-0.721c9.667,-5.777 18.098,-12.833 25.292,-21.166c33.722,-39.111 62.903,-81.389 87.542,-126.834c16.083,-29.583 56.291,-115.416 91.5,-58.125c0.778,1.278 1.847,1.639 3.208,1.084c4.722,-1.945 7.847,-4.278 9.375,-7c12.583,-22.542 76.292,-149.5 110.25,-130.084c68.333,39 -76.333,161.167 -64.75,208.75c0.417,1.75 1.528,2.625 3.333,2.625c25.167,0.042 75.792,-69.833 90.792,-88.333c18.028,-22.222 31.972,-37.5 41.833,-45.833c38.459,-32.542 135.584,-78.75 167.875,-11.459c44.792,93.459 -115.5,193.417 -179.875,225.584c-7.833,3.958 -25.125,24.666 -20.708,36c2.875,7.416 11.25,8.041 18.208,5.083c44,-18.75 76.5,-38.542 125.417,-68.042c69.042,-41.666 138.5,-85.208 193.167,-145.458c7.75,-8.528 24.153,-28.625 49.208,-60.292c44.389,-56.027 93.292,-107.777 146.708,-155.25c9.278,-8.25 19.278,-15.458 30,-21.625c1.25,-0.722 2.542,-0.805 3.875,-0.25c22.917,9.417 48.459,51.584 30.334,72.542c-61.75,71.458 -121.125,144.417 -183.792,215.125c-24.055,27.167 -45.819,57.819 -65.292,91.958c-6.458,11.334 -44.041,85.25 11.084,48.5c25.583,-17.055 49.222,-36.389 70.916,-58c21.209,-21.208 43.459,-52.125 63,-74.5c49.167,-56.333 134.375,-113.333 211.167,-87.416c54.5,18.416 48.542,78.625 36.708,122.708c-11.916,44.5 57.875,48.833 82.584,49.125c307.416,4.042 613.25,-40.125 920.708,-14.292c88.375,7.417 165.292,10 269.625,13.167c30.972,0.944 53.375,15.125 67.208,42.542c23.709,47.041 -59.708,40.25 -79.458,39.5c-107.139,-4.278 -226.75,-10.723 -358.833,-19.334c-106.084,-6.875 -213.542,-5.416 -321.5,1.042c-131.639,7.917 -263.361,13.972 -395.167,18.167c-61.875,1.958 -211.125,19.708 -250.417,-43.375c-0.944,-1.528 -1.93,-1.556 -2.958,-0.084c-26.625,38.084 -54.917,64.667 -102.208,69.917c-43.5,4.875 -64.917,-22.75 -88.375,-53.167c-0.457,-0.599 -1.169,-0.951 -1.922,-0.951c-0.638,-0 -1.251,0.252 -1.703,0.701c-44.792,43.125 -104.459,95.584 -166.625,104.375c-4.778,0.695 -10.167,-1.25 -16.167,-5.833c-25.542,-19.5 -38.208,-43.458 -39.75,-75.292c-0.5,-10.416 0.125,-32 -6.667,-40.125c-1.083,-1.277 -2.333,-1.458 -3.75,-0.541c-25.25,16.416 -52.208,37.75 -73.541,51.416c-47.195,30.167 -97.111,55.07 -149.75,74.709c-27.709,10.291 -66.125,6.083 -82.084,-22.334c-18.777,-33.333 -25.194,-69.027 -19.25,-107.083c0.278,-1.667 -0.375,-2.222 -1.958,-1.667c-57.167,19.625 -71.833,4.709 -92.625,-45.958c-0.694,-1.722 -1.639,-1.875 -2.833,-0.458c-31.292,37.041 -56.584,69.583 -88.75,114c-28.25,39 -78.25,94.833 -124.709,111.583c-46.083,16.625 -70,-19.292 -72.166,-60.25c-3.042,-57.333 18.25,-101.208 31.416,-155.083c1.084,-4.445 -0.625,-5.945 -5.125,-4.5c-1.472,0.472 -3.791,2.014 -6.958,4.625c-37.208,30.875 -78.542,49.291 -120.167,73c-45.875,26.166 -137.75,145.125 -196.958,80.166c-20.292,-22.291 -31.042,-42.958 -18.167,-72.833c13.195,-30.694 26.667,-60.306 40.417,-88.833c0.207,-0.432 0.314,-0.905 0.314,-1.384c-0,-1.76 -1.448,-3.208 -3.208,-3.208c-0.469,-0 -0.931,0.102 -1.356,0.3c-68.5,32.75 -135.278,68.347 -200.333,106.792c-28.167,16.666 -81.792,41.5 -98.25,69.833c-23.028,39.694 -38.986,69.167 -47.875,88.417c-68.528,148.444 -135.514,297.569 -200.959,447.375c-37.722,86.333 -72.138,173.958 -103.25,262.875c-5,14.333 -14.625,21.416 -30.333,21.541c-35.333,0.292 -38.583,-19.916 -32.75,-50.208c4.472,-23.167 15.806,-57.347 34,-102.542c67.806,-168.416 127.222,-306.139 178.25,-413.166c33.167,-69.584 65.695,-139.181 97.583,-208.792c0.08,-0.186 0.121,-0.386 0.121,-0.588c-0,-0.823 -0.678,-1.5 -1.5,-1.5c-0.125,0 -0.25,0.016 -0.371,0.046c-29.972,8.528 -59.722,16.834 -89.25,24.917c-25.041,6.833 -35.041,3.125 -54.625,-11c-40.375,-29.208 -27.208,-67.625 -2.083,-100.208c25.417,-32.917 51.792,-60.167 85.292,-89.75c68.639,-60.584 139.486,-118.542 212.541,-173.875c18.959,-14.334 40.25,-35.667 51.084,-59.667c49.055,-108.472 106.014,-224 170.875,-346.583c43.861,-82.861 88.458,-158.028 133.791,-225.5c7.875,-11.75 21.667,-31.334 37.667,-23.292c22.667,11.417 23.917,48.833 17.375,70.125c-6,19.5 -14.875,31.5 -25.167,47.958c-81.833,131.334 -150.5,270.042 -221.25,407.792c-0.181,0.334 -0.27,0.709 -0.258,1.087c0.037,1.188 1.064,2.134 2.275,2.096c0.376,-0.011 0.744,-0.118 1.067,-0.308c62.458,-36.583 410.875,-277.708 465.333,-228.75c15.292,13.708 16.042,40.583 4,56.958c-4.361,5.945 -12.403,11.584 -24.125,16.917c-81.805,37.083 -161.722,77.833 -239.75,122.25c-74.958,42.667 -146.375,93.958 -218.458,141.458c-22.792,15.042 -51.917,37.459 -68.625,62.209c-22.528,33.389 -40.736,68.819 -54.625,106.291c-0.07,0.205 -0.106,0.42 -0.106,0.636c-0,1.074 0.884,1.958 1.958,1.958c0.281,0 0.559,-0.06 0.814,-0.177c117.667,-56.75 236.417,-117.667 349.292,-170.375c23.833,-11.139 50.056,-22.097 78.667,-32.875c40.333,-15.125 73.5,26.125 70.75,61.417c-1,12.889 0.291,23.875 3.875,32.958Zm-151.834,51.708c-24.333,30.611 -46.277,62.861 -65.833,96.75c-0.158,0.292 -0.24,0.619 -0.24,0.951c-0,1.098 0.902,2 2,2c0.268,0 0.534,-0.054 0.782,-0.159c37.791,-17.208 85.916,-48.542 69.708,-98.417c-0.507,-1.505 -1.926,-2.525 -3.514,-2.525c-1.13,0 -2.199,0.516 -2.903,1.4Zm-444.416,74.584c3.083,-7.209 9.458,-19.209 13.458,-29.334c1.056,-2.639 0.417,-3.139 -1.917,-1.5c-38.944,27.334 -75.944,57.098 -111,89.292c-7.472,6.861 -12.972,13.639 -16.5,20.333c-0.361,0.673 -0.551,1.426 -0.551,2.19c0,2.537 2.088,4.625 4.625,4.625c0.574,-0 1.142,-0.107 1.676,-0.315c26.445,-9.916 50.584,-20.833 72.417,-32.75c21.458,-11.708 26.958,-27.333 37.792,-52.541Z" style="fill-rule:nonzero;"/><path d="M510.886,792.801c-3.472,2.75 -6.861,5.597 -10.167,8.541c-79.944,71.445 -158.444,144.459 -235.5,219.042c-59.375,57.417 -114.208,120.208 -176.416,174.792c-16.889,14.805 -33.736,29.583 -50.542,44.333c-1.916,1.681 -4.762,1.82 -6.833,0.333c-30.5,-22.041 -44.75,-60.375 -15.209,-91.416c64.778,-67.973 129.528,-135.986 194.25,-204.042c38.278,-40.25 73.181,-73.444 104.709,-99.583c10.708,-8.917 24.5,-12.084 35.541,-20.417c84.334,-63.792 162.375,-142.542 236.125,-218.208c85.667,-87.959 145.084,-170.167 214.5,-259.375c16.25,-20.875 70.042,-90.875 87,-16.292c8.709,38.25 -60.416,117.167 -81.25,144.875c-84.083,111.917 -166.875,230.25 -229.375,355.833c-4.472,9 -8.25,18.32 -11.333,27.959c-0.052,0.176 -0.078,0.359 -0.078,0.543c-0,1.051 0.865,1.916 1.916,1.916c0.457,0 0.898,-0.163 1.245,-0.459c19.528,-17.223 38.5,-34.875 56.917,-52.959c113.722,-111.694 222.945,-227.597 327.667,-347.708c34.625,-39.708 65.75,-74.125 98.708,-104.083c4.667,-4.25 10.222,-4.431 16.667,-0.542c23.041,14 39.458,41.833 24.958,68.458c-51.528,94.584 -105.319,187.889 -161.375,279.917c-8,13.139 -15.5,26.208 -22.5,39.208c-0.139,0.289 -0.211,0.605 -0.211,0.925c-0,1.165 0.959,2.125 2.125,2.125c0.505,-0 0.993,-0.18 1.378,-0.508c59.805,-55.528 116,-114.403 168.583,-176.625c16.75,-19.833 48.333,-28.875 64.125,-1.083c22.458,39.5 14.208,91.666 2.667,135.041c-11.25,42.334 -22.417,82.25 -26.5,125.917c-0.01,0.105 -0.015,0.21 -0.015,0.316c0,1.851 1.524,3.375 3.375,3.375c0.691,-0 1.365,-0.212 1.931,-0.608c50.209,-35.166 96.167,-80.958 140.875,-122.875c1.028,-0.944 1.5,-2.125 1.417,-3.541c-3.528,-66.306 -7.069,-132.598 -10.625,-198.875c-1.042,-19.542 13.25,-24.542 29.875,-22.167c58.458,8.333 54.958,106.083 58.042,148.75c0.194,2.667 1.291,3.125 3.291,1.375c91.917,-79.875 189.084,-143.167 302.167,-208.333c17.417,-10.042 31.292,-18.375 47.25,-6.334c30.833,23.209 30.125,48.709 -4,67.125c-122.458,66 -233.083,151.042 -338.375,241.459c-5.667,4.875 -5,7.583 -4.583,14.625c4.694,86.527 9.222,173.069 13.583,259.625c1.028,20.361 1.014,43.916 -0.042,70.666c-0.958,23.584 -18.916,26.375 -36.5,17.292c-47.75,-24.583 -50.291,-66.708 -50.791,-114.292c-0.611,-58.305 -2,-116.652 -4.167,-175.041c-0.039,-0.908 -0.797,-1.634 -1.707,-1.634c-0.496,-0 -0.969,0.216 -1.293,0.592c-49.278,57.889 -97.625,116.458 -145.042,175.708c-26.75,33.417 -63.75,-6.916 -71.958,-33.958c-1.694,-5.556 -2.514,-18.75 -2.458,-39.583c0.083,-32.639 -0.556,-65.389 -1.917,-98.25c-0.049,-0.878 -0.785,-1.573 -1.664,-1.573c-0.607,-0 -1.169,0.332 -1.461,0.864c-16.625,31.167 -84.708,168.125 -129.25,157.209c-35.667,-8.75 -27.458,-56.875 -23.208,-84.417c0.305,-1.861 -0.236,-2.153 -1.625,-0.875c-41.292,37.333 -79.667,76.583 -125.084,109.208c-3.5,2.542 -7.291,3.334 -11.291,4.417c-1.389,0.361 -2.736,0.278 -4.042,-0.25c-24.625,-10.042 -47.25,-39.958 -36.792,-67.708c32.584,-86.209 92.334,-151.334 134.917,-232.459c0.055,-0.099 0.101,-0.203 0.136,-0.311c0.312,-0.956 -0.235,-2.006 -1.213,-2.325c-0.097,-0.032 -0.197,-0.056 -0.298,-0.072c-5.333,-0.667 -242.083,256.5 -265.083,281.583c-28.042,30.542 -73.375,69.667 -108.834,18.417c-36.083,-52.25 18.792,-141.25 36.417,-192.333c0.833,-2.445 0.25,-2.861 -1.75,-1.25Z" style="fill-rule:nonzero;"/><path d="M2115.64,1244.84c-26.417,-19.166 -33.5,-54.833 -28.917,-85.166c12.542,-83 131.709,-93.625 154.25,-13.459c0.473,1.695 -0.18,2.542 -1.958,2.542l-17.042,0c-1.694,0 -2.944,-0.75 -3.75,-2.25c-10.638,-20.278 -26.097,-31.375 -46.375,-33.292c-81.875,-7.708 -86.5,127 -4.958,127.25c22.945,0.084 39.792,-11.152 50.542,-33.708c0.555,-1.167 1.472,-1.75 2.75,-1.75l18.833,0c1.75,0 2.375,0.833 1.875,2.5c-16.375,55.583 -82.458,68.375 -125.25,37.333Z" style="fill-rule:nonzero;"/><path d="M4253.89,1170.26c-19.125,-13.333 -22.25,-42.375 -9.125,-60.083c24.708,-33.209 91,-22.459 99.375,21.25c0.333,1.833 -0.43,2.75 -2.292,2.75l-17.833,-0c-1.75,-0 -2.958,-0.82 -3.625,-2.459c-11.167,-27.958 -58.542,-30.875 -59.708,1.542c-1.584,44.708 94.041,23 87.583,85.292c-3.542,34.125 -33.042,46.666 -63.667,42.25c-22.222,-3.195 -37.833,-16.098 -46.833,-38.709c-2.055,-5.139 -0.305,-7.708 5.25,-7.708l14.667,0c1.555,0 2.625,0.722 3.208,2.167c19.667,49.208 82.208,20.708 59.333,-13.417c-13,-19.333 -47.041,-19.417 -66.333,-32.875Z" style="fill-rule:nonzero;"/><path d="M4579.47,1260.51c-112.416,18.208 -130.541,-159.458 -19.916,-167.625c40.916,-3.028 68.375,13.889 82.375,50.75c0.75,2.028 0.055,3.042 -2.084,3.042l-18.541,-0c-1.472,-0 -2.556,-0.653 -3.25,-1.959c-12.389,-23.583 -31.861,-33.986 -58.417,-31.208c-83.542,8.75 -58.208,157.417 30.417,123.625c20.166,-7.667 32.111,-23.569 35.833,-47.708c0.222,-1.417 -0.389,-2.125 -1.833,-2.125l-60.25,-0c-1.389,-0 -2.084,-0.695 -2.084,-2.084l0,-11.958c0,-1.75 0.875,-2.625 2.625,-2.625l78.667,0c1.778,0 2.708,0.875 2.792,2.625c2.583,44.5 -22.584,80.167 -66.334,87.25Z" style="fill-rule:nonzero;"/><path d="M1995.55,1191.09c-0.881,0.189 -1.517,0.974 -1.517,1.875c0,0.37 0.107,0.732 0.308,1.042l41.375,62.5c1.195,1.806 0.723,2.694 -1.416,2.667l-20.584,-0.042c-1.416,0 -2.513,-0.597 -3.291,-1.792l-40.292,-63c-0.778,-1.222 -1.875,-1.833 -3.292,-1.833l-17.083,0c-1.75,0 -2.625,0.861 -2.625,2.583l0,60.959c0,2.083 -1.042,3.125 -3.125,3.125l-16.667,-0c-2.083,-0 -3.125,-1.042 -3.125,-3.125l0,-160.375c0,-1.361 0.681,-2.042 2.042,-2.042c14.972,-0.25 34.375,-0.139 58.208,0.333c62.875,1.167 71.75,84.334 11.084,97.125Zm-48.459,-75.833l0.084,58.667c-0,1.005 0.827,1.833 1.833,1.833l33.417,-0.042c16.684,-0.025 30.395,-12.908 30.375,-28.541l-0,-5.334c-0,-0.003 -0,-0.007 -0,-0.011c-0.027,-15.632 -13.775,-28.472 -30.459,-28.447l-33.416,0.042c-1.006,-0 -1.834,0.827 -1.834,1.833Z" style="fill-rule:nonzero;"/><path d="M2401.93,1183.13l-77.292,0c-1.371,0 -2.5,1.129 -2.5,2.5l0,71.042c0,1.371 -1.128,2.5 -2.5,2.5l-17.917,-0c-1.371,-0 -2.5,-1.129 -2.5,-2.5l0,-160.625c0,-1.372 1.129,-2.5 2.5,-2.5l17.917,-0c1.372,-0 2.5,1.128 2.5,2.5l0,66.875c0,1.371 1.129,2.5 2.5,2.5l77.292,-0c1.371,-0 2.5,-1.129 2.5,-2.5l-0,-66.875c-0,-1.372 1.128,-2.5 2.5,-2.5l17.916,-0c1.372,-0 2.5,1.128 2.5,2.5l0,160.625c0,1.371 -1.128,2.5 -2.5,2.5l-17.916,-0c-1.372,-0 -2.5,-1.129 -2.5,-2.5l-0,-71.042c-0,-1.371 -1.129,-2.5 -2.5,-2.5Z" style="fill-rule:nonzero;"/><path d="M2512.76,1096.05c0,-1.38 -1.12,-2.5 -2.5,-2.5l-17.917,-0c-1.379,-0 -2.5,1.12 -2.5,2.5l0,160.666c0,1.38 1.121,2.5 2.5,2.5l17.917,0c1.38,0 2.5,-1.12 2.5,-2.5l0,-160.666Z"/><path d="M2562.72,1109.63l0.125,-13.417c0,-1.463 1.204,-2.666 2.667,-2.666l110.208,-0c1.463,-0 2.667,1.203 2.667,2.666l0,13.417c0,1.463 -1.204,2.667 -2.667,2.667l-41.541,-0c-1.463,-0 -2.667,1.203 -2.667,2.666l0,141.542c0,1.463 -1.204,2.667 -2.667,2.667l-16.541,-0c-1.463,-0 -2.667,-1.204 -2.667,-2.667l0,-141.542c0,-1.463 -1.204,-2.666 -2.667,-2.666l-41.583,-0c-1.463,-0 -2.667,-1.204 -2.667,-2.667Z" style="fill-rule:nonzero;"/><path d="M2750.26,1187.51l0,51.458c0,1.372 1.129,2.5 2.5,2.5l64.792,0c1.371,0 2.5,1.129 2.5,2.5l-0,12.709c-0,1.371 -1.129,2.5 -2.5,2.5l-86.667,-0c-1.371,-0 -2.5,-1.129 -2.5,-2.5l0,-160.625c0,-1.372 1.129,-2.5 2.5,-2.5l86.667,-0c1.371,-0 2.5,1.128 2.5,2.5l-0,13.75c-0,1.371 -1.129,2.5 -2.5,2.5l-64.792,-0c-1.371,-0 -2.5,1.128 -2.5,2.5l0,50.208c0,1.372 1.129,2.5 2.5,2.5l57.5,0c1.372,0 2.5,1.129 2.5,2.5l0,12.792c0,1.371 -1.128,2.5 -2.5,2.5l-57.5,-0.292c-1.371,0 -2.5,1.129 -2.5,2.5Z" style="fill-rule:nonzero;"/><path d="M2897.89,1259.18l-20.167,-0c-0.777,-0 -1.416,-0.64 -1.416,-1.417l-0,-162.792c-0,-0.777 0.639,-1.416 1.416,-1.416l20.125,-0c0.778,-0 1.417,0.639 1.417,1.416l-0.125,70.334c0.001,0.776 0.64,1.415 1.417,1.415c0.395,-0 0.773,-0.166 1.041,-0.457l64.959,-72.25c0.268,-0.291 0.646,-0.458 1.041,-0.458l24.292,-0c0.777,0.001 1.415,0.64 1.415,1.416c0,0.355 -0.133,0.697 -0.373,0.959l-73.042,78.958c-0.495,0.539 -0.495,1.378 0,1.917l72.542,80c0.24,0.261 0.373,0.603 0.373,0.958c0,0.777 -0.638,1.416 -1.415,1.417l-24.5,-0c-0.396,-0.001 -0.774,-0.167 -1.042,-0.459l-64.291,-72.208c-0.269,-0.32 -0.666,-0.505 -1.084,-0.505c-0.777,0 -1.417,0.64 -1.417,1.417c0,0.015 0,0.031 0.001,0.046l0.25,70.292c-0,0.777 -0.64,1.417 -1.417,1.417Z" style="fill-rule:nonzero;"/><path d="M3030.47,1109.93l0,-14c0,-1.303 1.073,-2.375 2.375,-2.375l110.875,-0c1.303,-0 2.375,1.072 2.375,2.375l0,14c0,1.303 -1.072,2.375 -2.375,2.375l-42.125,-0c-1.302,-0 -2.375,1.072 -2.375,2.375l0,142.125c0,1.303 -1.072,2.375 -2.375,2.375l-17.125,-0c-1.302,-0 -2.375,-1.072 -2.375,-2.375l0,-142.125c0,-1.303 -1.072,-2.375 -2.375,-2.375l-42.125,-0c-1.302,-0 -2.375,-1.072 -2.375,-2.375Z" style="fill-rule:nonzero;"/><path d="M3318.55,1205.22c-3.334,74.959 -120.792,75.834 -122.667,-1.083c-0.889,-35.75 -1.125,-71.681 -0.708,-107.792c-0,-1.861 0.944,-2.791 2.833,-2.791l16.75,-0c1.583,-0 2.361,0.791 2.333,2.375c-0.444,31.25 -0.361,62.416 0.25,93.5c0.278,14.527 2.362,25.236 6.25,32.125c20.5,36.333 72.667,17.875 73.25,-23.625c0.473,-33.917 0.514,-67.875 0.125,-101.875c0,-1.667 0.834,-2.5 2.5,-2.5l16.542,-0c1.778,-0 2.681,0.889 2.708,2.666c0.723,53.528 0.667,89.861 -0.166,109Z" style="fill-rule:nonzero;"/><path d="M3423.39,1192.51l-16.875,0c-2.083,0 -3.125,1.042 -3.125,3.125l0,60.958c0,1.723 -0.875,2.584 -2.625,2.584l-16.125,-0c-2.083,-0 -3.125,-1.042 -3.125,-3.125l0,-160.5c0,-1.097 0.903,-2 2,-2c39.667,0.041 109.125,-11.375 108.875,49.458c-0.083,25.958 -13.292,42.792 -38.75,47.708c-1.341,0.266 -2.317,1.453 -2.317,2.821c-0,0.568 0.168,1.124 0.484,1.596l40.416,61.083c1.306,1.973 0.764,2.959 -1.625,2.959l-19.583,-0c-1.778,-0 -3.139,-0.736 -4.083,-2.209l-40.042,-62.583c-0.833,-1.25 -2,-1.875 -3.5,-1.875Zm-20.083,-76.542l0.166,57.417c0,0 0,0 0,0c0,1.372 1.129,2.5 2.5,2.5c0.014,0 0.028,0 0.042,0l33.292,-0.125c16.937,-0.069 30.817,-13.762 30.75,-30.333l-0,-2c-0.068,-16.566 -14.05,-30.143 -30.98,-30.084c-0.007,0 -33.312,0.125 -33.312,0.125c-1.356,0.023 -2.458,1.145 -2.458,2.5Z" style="fill-rule:nonzero;"/><path d="M3896.34,1096.72c0,-1.805 1.486,-3.291 3.292,-3.291l57.792,0.208c43.657,0.161 79.45,35.804 79.291,78.958l0,8.5c-0.158,43.15 -36.204,78.528 -79.857,78.375c-0.006,0 -57.809,-0.208 -57.809,-0.208c-1.806,0 -3.292,-1.486 -3.292,-3.292l0.583,-159.25Zm22.542,18.792l0.25,121.75c0,1.212 0.997,2.208 2.208,2.208l32,-0.041c33.212,-0.07 60.485,-26.872 60.417,-59.375l0,-7.667c-0.067,-32.496 -27.44,-59.183 -60.645,-59.125c-0.007,0 -0.014,0 -0.022,0l-32,0.042c-1.211,-0 -2.208,0.997 -2.208,2.208Z" style="fill-rule:nonzero;"/><path d="M4116.93,1187.55l-0,51.375c-0,1.394 1.147,2.541 2.541,2.541l64.709,0c1.394,0 2.541,1.148 2.541,2.542l0,12.625c0,1.394 -1.147,2.542 -2.541,2.542l-87.625,-0c-1.395,-0 -2.542,-1.148 -2.542,-2.542l0,-160.542c0,-1.394 1.147,-2.541 2.542,-2.541l87.625,-0c1.394,-0 2.541,1.147 2.541,2.541l0,13.667c0,1.394 -1.147,2.542 -2.541,2.542l-64.709,-0c-1.394,-0 -2.541,1.147 -2.541,2.541l-0,50.125c-0,1.395 1.147,2.542 2.541,2.542l57.417,0c1.394,0 2.542,1.147 2.542,2.542l-0,12.708c-0,1.394 -1.148,2.542 -2.542,2.542l-57.417,-0.292c-1.394,0 -2.541,1.147 -2.541,2.542Z" style="fill-rule:nonzero;"/><path d="M4428.39,1096.05c0,-1.38 -1.12,-2.5 -2.5,-2.5l-17.917,-0c-1.379,-0 -2.5,1.12 -2.5,2.5l0,160.666c0,1.38 1.121,2.5 2.5,2.5l17.917,0c1.38,0 2.5,-1.12 2.5,-2.5l0,-160.666Z"/><path d="M4724.01,1259.18l-19.375,-0c-0.686,-0 -1.25,-0.565 -1.25,-1.25l0,-163.125c0,-0.686 0.564,-1.25 1.25,-1.25l20.292,-0c0.423,0.005 0.816,0.225 1.041,0.583l82.5,125.708c0.232,0.349 0.624,0.56 1.042,0.56c0.686,-0 1.25,-0.565 1.25,-1.25c0,-0.006 0,-0.012 0,-0.018l-0.125,-124.333c0,-0.686 0.564,-1.25 1.25,-1.25l19.417,-0c0.686,-0 1.25,0.564 1.25,1.25l-0,163.125c-0,0.685 -0.564,1.25 -1.25,1.25l-20.625,-0c-0.423,-0.006 -0.816,-0.226 -1.042,-0.584l-82.083,-124.916c-0.232,-0.349 -0.623,-0.56 -1.042,-0.56c-0.677,0 -1.237,0.55 -1.25,1.226l0,123.584c0,0.685 -0.564,1.25 -1.25,1.25Z" style="fill-rule:nonzero;"/><path d="M1834.8,1221.68l-69.167,-0c-0.798,0.002 -1.514,0.502 -1.792,1.25l-12.541,35c-0.278,0.748 -0.994,1.247 -1.792,1.25l-20.333,-0c-1.05,-0.003 -1.912,-0.868 -1.912,-1.917c0,-0.228 0.041,-0.453 0.12,-0.667l59.958,-158.666c0.278,-0.748 0.994,-1.248 1.792,-1.25l22.375,-0c0.798,0.002 1.514,0.502 1.792,1.25l59.833,158.666c0.079,0.214 0.12,0.439 0.12,0.667c-0,1.049 -0.862,1.914 -1.912,1.917l-20.375,-0c-0.797,-0.003 -1.514,-0.502 -1.791,-1.25l-12.584,-35c-0.277,-0.748 -0.994,-1.248 -1.791,-1.25Zm-63.167,-19.667c-0.058,0.16 -0.088,0.33 -0.088,0.5c-0,0.8 0.658,1.458 1.458,1.458c0.002,0 0.003,0 0.005,0l54.583,0c0.002,0 0.004,0 0.006,0c0.8,0 1.458,-0.658 1.458,-1.458c-0,-0.17 -0.03,-0.34 -0.089,-0.5l-27.291,-75.292c-0.206,-0.581 -0.759,-0.972 -1.375,-0.972c-0.617,-0 -1.17,0.391 -1.375,0.972l-27.292,75.292Z" style="fill-rule:nonzero;"/><path d="M3572.05,1222.93l-12.584,35c-0.277,0.748 -0.994,1.247 -1.791,1.25l-20.209,-0c-1.049,-0.003 -1.911,-0.868 -1.911,-1.917c0,-0.228 0.041,-0.453 0.12,-0.667l59.916,-158.666c0.278,-0.748 0.994,-1.248 1.792,-1.25l22.458,-0c0.798,0.002 1.515,0.502 1.792,1.25l59.708,158.666c0.08,0.214 0.12,0.439 0.12,0.667c0,1.049 -0.862,1.914 -1.911,1.917l-20.417,-0c-0.823,0.009 -1.565,-0.514 -1.833,-1.292l-12.25,-34.917c-0.269,-0.778 -1.01,-1.3 -1.834,-1.291l-69.375,-0c-0.797,0.002 -1.514,0.502 -1.791,1.25Zm7.75,-20.792c-0.051,0.148 -0.076,0.302 -0.076,0.458c-0,0.775 0.635,1.413 1.409,1.417l54.792,-0.083c0.764,-0.018 1.383,-0.652 1.383,-1.417c-0,-0.17 -0.031,-0.34 -0.092,-0.5l-27.5,-75.25c-0.201,-0.561 -0.736,-0.938 -1.333,-0.938c-0.596,0 -1.132,0.377 -1.333,0.938l-27.25,75.375Z" style="fill-rule:nonzero;"/><path d="M3798.34,1162.3l42.375,-0c1.235,-0 2.25,1.015 2.25,2.25l0,20.5c0,1.234 -1.015,2.25 -2.25,2.25l-42.375,-0c-1.234,-0 -2.25,1.015 -2.25,2.25l0,43.416c0,1.235 -1.015,2.25 -2.25,2.25l-22.583,0c-1.234,0 -2.25,-1.015 -2.25,-2.25l0,-43.416c0,-1.235 -1.016,-2.25 -2.25,-2.25l-41.333,-0c-1.234,-0 -2.25,-1.016 -2.25,-2.25l-0,-20.5c-0,-1.235 1.016,-2.25 2.25,-2.25l41.333,-0c1.234,-0 2.25,-1.016 2.25,-2.25l0,-43.417c0,-1.234 1.016,-2.25 2.25,-2.25l22.583,0c1.235,0 2.25,1.016 2.25,2.25l0,43.417c0,1.234 1.016,2.25 2.25,2.25Z" style="fill:#f00;fill-rule:nonzero;"/></svg>